<?xml version="1.0" encoding="UTF-8" standalone="no"?>
<!-- Created with Inkscape (http://www.inkscape.org/) -->

<svg
   width="276.58441"
   height="235.91182"
   viewBox="0 0 73.17963 62.418338"
   version="1.1"
   id="svg5"
   sodipodi:docname="niinary-typography.svg"
   inkscape:version="1.2.2 (732a01da63, 2022-12-09)"
   xml:space="preserve"
   xmlns:inkscape="http://www.inkscape.org/namespaces/inkscape"
   xmlns:sodipodi="http://sodipodi.sourceforge.net/DTD/sodipodi-0.dtd"
   xmlns="http://www.w3.org/2000/svg"
   xmlns:svg="http://www.w3.org/2000/svg"><sodipodi:namedview
     id="namedview7"
     pagecolor="#505050"
     bordercolor="#eeeeee"
     borderopacity="1"
     inkscape:showpageshadow="0"
     inkscape:pageopacity="0"
     inkscape:pagecheckerboard="0"
     inkscape:deskcolor="#505050"
     inkscape:document-units="mm"
     showgrid="false"
     inkscape:lockguides="true"
     inkscape:zoom="0.37915039"
     inkscape:cx="2491.0959"
     inkscape:cy="2545.1642"
     inkscape:window-width="2240"
     inkscape:window-height="1294"
     inkscape:window-x="-11"
     inkscape:window-y="-11"
     inkscape:window-maximized="1"
     inkscape:current-layer="g3960" /><defs
     id="defs2" /><g
     inkscape:label="Layer 1"
     inkscape:groupmode="layer"
     id="layer1"
     transform="translate(-791.78938,-660.27021)"><g
       id="g6562"
       inkscape:export-filename="neenaryex.svg"
       inkscape:export-xdpi="88.855316"
       inkscape:export-ydpi="88.855316"><g
         style="fill:none;stroke:#000000;stroke-width:2;stroke-dasharray:none;stroke-opacity:1"
         id="g1057"
         transform="matrix(2.0187231,0,0,2.0187231,787.75198,656.23279)"><path
           d="M 34.542,21.669 H 8.216 a 0.585,0.585 0 0 1 0,-1.17 h 26.326 a 0.585,0.585 0 0 1 0,1.17 z m 0,2.218 H 8.216 a 0.585,0.585 0 1 1 0,-1.17 h 26.326 a 0.585,0.585 0 0 1 0,1.17 z"
           fill="#ff6740"
           id="path1021"
           style="fill:#b143ff;fill-opacity:1;stroke:none" /><path
           d="m 30.233,23.229 v 3.912 l 1.675,-0.97 1.676,0.97 V 23.23 h -3.35 z"
           fill="#ff6740"
           id="path1023"
           style="fill:#b143ff;fill-opacity:1;stroke:none" /><path
           d="m 35.715,10.866 h -4.403 v 2.441 h 4.403 v -2.44 z"
           fill="#272b30"
           id="path1025"
           style="stroke:none" /><path
           d="m 38.08,13.928 c -0.021,-0.02 -0.043,-0.037 -0.065,-0.056 A 5.998,5.998 0 0 1 36.749,12.336 L 36.74,12.318 h -0.001 a 5.91,5.91 0 0 1 -0.72,-2.15 c -0.004,-0.047 -0.01,-0.093 -0.015,-0.14 V 10.019 A 1.514,1.514 0 0 0 35.677,9.294 L 35.629,9.24 A 10.43,10.43 0 0 0 30.328,6.042 6.574,6.574 0 0 1 31.138,2.558 0.376,0.376 0 0 0 30.806,2.001 H 30.78 a 13.705,13.705 0 0 0 -6.965,3.33 13.792,13.792 0 0 0 -2.85,3.56 A 12.616,12.616 0 0 0 19.243,8.127 12.859,12.859 0 0 0 13.707,7.43 12.765,12.765 0 0 0 9.542,8.535 C 5.379,10.437 2.405,14.49 2.039,19.27 2.013,19.6 2,19.935 2,20.27 v 3.233 c 0,0.56 0.083,1.098 0.237,1.605 a 5.55,5.55 0 0 0 2.596,3.226 c 0.76,0.427 1.63,0.68 2.56,0.704 h 8.212 a 1.623,1.623 0 0 1 0.243,0 c 0.013,0 0.026,0 0.04,0.003 0.021,0.001 0.042,0.002 0.064,0.005 a 1.941,1.941 0 0 1 1.706,1.702 1.291,1.291 0 0 1 0.014,0.23 l -0.001,0.036 v 0.004 a 1.95,1.95 0 0 0 0.918,1.61 1.94,1.94 0 0 0 2.955,-1.514 0.943,0.943 0 0 0 0.004,-0.077 v -0.108 c 0,-0.662 -0.11,-1.3 -0.313,-1.891 A 5.816,5.816 0 0 0 19.814,26.784 5.815,5.815 0 0 0 15.727,25.108 H 8.88 C 8.864,25.11 8.847,25.11 8.83,25.11 c -0.016,0 -0.033,0 -0.05,-0.002 A 2.917,2.917 0 0 1 5.91,22.19 2.92,2.92 0 0 1 8.83,19.269 h 26.106 a 1.52,1.52 0 0 0 1.443,-1.05 l 0.02,-0.07 c 0.091,-0.294 0.27,-0.55 0.506,-0.737 l 0.004,-0.002 a 0.638,0.638 0 0 1 0.058,-0.044 0.934,0.934 0 0 1 0.082,-0.055 2.985,2.985 0 0 0 1.032,-3.385 z m -3.487,-1.165 a 0.377,0.377 0 0 1 -0.175,-0.044 2.037,2.037 0 0 0 -1.423,-0.234 c -0.212,0.04 -0.412,0.114 -0.595,0.215 l -0.008,0.006 C 32.38,12.71 32.37,12.717 32.36,12.724 A 0.369,0.369 0 0 1 31.99,12.09 l 0.036,-0.022 a 2.794,2.794 0 0 1 2.735,0 l 0.036,0.022 a 0.367,0.367 0 0 1 -0.204,0.673 z"
           fill="#f1f1f1"
           id="path1027"
           style="stroke:none" /><path
           d="m 38.08,13.928 c -0.021,-0.02 -0.043,-0.037 -0.065,-0.056 A 5.998,5.998 0 0 1 36.749,12.336 L 36.74,12.318 h -0.001 a 5.91,5.91 0 0 1 -0.72,-2.15 c -0.004,-0.047 -0.01,-0.093 -0.015,-0.14 V 10.019 A 1.514,1.514 0 0 0 35.677,9.294 L 35.629,9.24 A 10.43,10.43 0 0 0 30.328,6.042 6.574,6.574 0 0 1 31.138,2.558 0.376,0.376 0 0 0 30.806,2.001 H 30.78 a 13.705,13.705 0 0 0 -6.965,3.33 13.792,13.792 0 0 0 -2.85,3.56 A 12.616,12.616 0 0 0 19.243,8.127 12.859,12.859 0 0 0 13.707,7.43 12.765,12.765 0 0 0 9.542,8.535 C 5.379,10.437 2.405,14.49 2.039,19.27 2.013,19.6 2,19.935 2,20.27 v 3.233 c 0,0.56 0.083,1.098 0.237,1.605 a 5.55,5.55 0 0 0 2.596,3.226 c 0.76,0.427 1.63,0.68 2.56,0.704 h 8.212 a 1.623,1.623 0 0 1 0.243,0 c 0.013,0 0.026,0 0.04,0.003 0.021,0.001 0.042,0.002 0.064,0.005 a 1.941,1.941 0 0 1 1.706,1.702 1.291,1.291 0 0 1 0.014,0.23 l -0.001,0.036 v 0.004 a 1.95,1.95 0 0 0 0.918,1.61 1.94,1.94 0 0 0 2.955,-1.514 0.943,0.943 0 0 0 0.004,-0.077 v -0.108 c 0,-0.662 -0.11,-1.3 -0.313,-1.891 A 5.816,5.816 0 0 0 19.814,26.784 5.815,5.815 0 0 0 15.727,25.108 H 8.88 C 8.864,25.11 8.847,25.11 8.83,25.11 c -0.016,0 -0.033,0 -0.05,-0.002 A 2.917,2.917 0 0 1 5.91,22.19 2.92,2.92 0 0 1 8.83,19.269 h 26.106 a 1.52,1.52 0 0 0 1.443,-1.05 l 0.02,-0.07 c 0.091,-0.294 0.27,-0.55 0.506,-0.737 l 0.004,-0.002 a 0.638,0.638 0 0 1 0.058,-0.044 0.934,0.934 0 0 1 0.082,-0.055 2.985,2.985 0 0 0 1.032,-3.385 z m -3.487,-1.165 a 0.377,0.377 0 0 1 -0.175,-0.044 2.037,2.037 0 0 0 -1.423,-0.234 c -0.212,0.04 -0.412,0.114 -0.595,0.215 l -0.008,0.006 C 32.38,12.71 32.37,12.717 32.36,12.724 A 0.369,0.369 0 0 1 31.99,12.09 l 0.036,-0.022 a 2.794,2.794 0 0 1 2.735,0 l 0.036,0.022 a 0.367,0.367 0 0 1 -0.204,0.673 z"
           fill="#e6e6e6"
           id="path1029"
           style="fill:#bba5ff;fill-opacity:1;stroke:none;stroke-width:0;stroke-dasharray:none;stroke-opacity:1" /><path
           d="m 21.005,8.824 c 0.703,3.38 3.635,5.915 7.147,5.915 2.067,0 3.933,-0.88 5.262,-2.292 l -0.021,-10e-4 c -0.137,0 -0.27,0.013 -0.398,0.04 A 1.942,1.942 0 0 0 32.4,12.7 l -0.008,0.006 a 0.11,0.11 0 0 0 -0.033,0.019 0.369,0.369 0 0 1 -0.532,-0.33 c 0,-0.128 0.064,-0.239 0.162,-0.305 l 0.037,-0.022 A 2.789,2.789 0 0 1 33.978,11.774 7.519,7.519 0 0 0 35.287,8.876 10.415,10.415 0 0 0 30.327,6.042 6.573,6.573 0 0 1 31.137,2.557 0.376,0.376 0 0 0 30.805,2 c -0.008,0 -0.017,0 -0.026,0.002 a 13.7,13.7 0 0 0 -6.965,3.33 13.793,13.793 0 0 0 -2.81,3.492 z"
           fill="#ff6740"
           id="path1031"
           style="fill:#9300ff;fill-opacity:1;stroke:none" /><path
           d="m 36.145,15.807 a 13.641,13.641 0 0 0 -0.955,-0.26 16.819,16.819 0 0 0 -2.907,-0.459 c -0.652,-0.054 -1.306,-0.027 -1.956,0.023 l -0.488,0.054 c -0.162,0.023 -0.32,0.062 -0.482,0.09 -0.328,0.04 -0.636,0.16 -0.962,0.228 a 7.178,7.178 0 0 1 1.906,-0.572 8.967,8.967 0 0 1 1.998,-0.083 11.15,11.15 0 0 1 1.972,0.313 9.682,9.682 0 0 1 1.874,0.666 z m -0.287,0.6 A 13.093,13.093 0 0 0 34.875,16.292 16.794,16.794 0 0 0 31.931,16.27 c -0.653,0.043 -1.295,0.167 -1.93,0.313 l -0.475,0.126 c -0.156,0.047 -0.308,0.108 -0.463,0.16 -0.319,0.089 -0.605,0.252 -0.917,0.369 a 7.175,7.175 0 0 1 1.8,-0.849 8.965,8.965 0 0 1 1.963,-0.38 c 0.665,-0.05 1.335,-0.05 1.997,0.018 a 9.73,9.73 0 0 1 1.952,0.38 z m -0.045,0.699 c -0.33,0.026 -0.659,0.051 -0.985,0.1 A 16.838,16.838 0 0 0 31.95,17.82 c -0.628,0.183 -1.228,0.442 -1.818,0.723 l -0.435,0.225 c -0.143,0.08 -0.278,0.172 -0.418,0.257 -0.293,0.155 -0.537,0.376 -0.817,0.557 a 7.174,7.174 0 0 1 1.575,-1.217 8.939,8.939 0 0 1 1.835,-0.794 11.13,11.13 0 0 1 1.953,-0.415 9.683,9.683 0 0 1 1.988,-0.05 z"
           fill="#272b30"
           id="path1033"
           style="stroke:none" /><path
           d="m 38.015,13.872 a 6.04,6.04 0 0 1 -0.32,-0.3 0.968,0.968 0 0 0 0.5,1.796 h 0.015 c 0.006,-0.041 0.016,-0.08 0.02,-0.122 a 2.95,2.95 0 0 0 -0.15,-1.319 z"
           fill="#f27baa"
           id="path1035"
           style="fill:#3e00ff;fill-opacity:1;stroke:none" /><path
           d="m 29.993,6.54 c 0,0.046 0,0.092 0.002,0.138 a 10.408,10.408 0 0 0 -3.166,2.017 5.556,5.556 0 0 1 4.345,-6.23 7.584,7.584 0 0 0 -1.18,4.075 z"
           fill="#ffffff"
           id="path1037"
           style="stroke:none" /><path
           d="m 19.814,26.785 a 5.844,5.844 0 0 0 -0.404,-0.36 4.512,4.512 0 0 0 -3.245,2.66 1.942,1.942 0 0 1 1.507,1.893 l -0.001,0.037 v 0.004 a 1.955,1.955 0 0 0 0.918,1.611 1.94,1.94 0 0 0 2.959,-1.592 V 30.93 c 0,-0.662 -0.11,-1.3 -0.313,-1.891 a 5.831,5.831 0 0 0 -1.421,-2.255 z"
           fill="#ff6740"
           id="path1039"
           style="fill:#5600ff;fill-opacity:1;stroke:none" /></g><g
         id="g6537"
         transform="matrix(0.02054814,0,0,0.02054814,830.55656,691.65791)"
         inkscape:export-filename="stripe-white-lined.png"
         inkscape:export-xdpi="96"
         inkscape:export-ydpi="96"><g
           id="g6535"
           style="stroke:#000000;stroke-width:2;stroke-dasharray:none;stroke-opacity:1"
           transform="translate(0.98688368,-6.414744)"><path
             style="fill:#9400ff;fill-opacity:0.996078;stroke:none;stroke-width:2;stroke-linejoin:bevel;stroke-dasharray:none;stroke-opacity:1"
             d="m 1009.1173,779.6175 -77.40949,-134.07721 -12.90159,22.34621 64.50796,111.731 z"
             id="path6515" /><path
             style="fill:#9400ff;fill-opacity:0.996078;stroke:none;stroke-width:2;stroke-linejoin:bevel;stroke-dasharray:none;stroke-opacity:1"
             d="m 1009.1173,556.1555 -12.90159,22.34621 103.21269,178.76964 12.9015,-22.34621 z"
             id="path6517" /><path
             style="fill:#9400ff;fill-opacity:0.996078;stroke:none;stroke-width:2;stroke-linejoin:bevel;stroke-dasharray:none;stroke-opacity:1"
             d="m 1086.5267,556.15553 51.6064,89.38479 -12.9016,22.34621 -51.6063,-89.3848 z"
             id="path6519" /><path
             style="fill:#b143ff;fill-opacity:1;stroke:none;stroke-width:2;stroke-linejoin:bevel;stroke-dasharray:none;stroke-opacity:1"
             d="m 944.60939,667.8865 64.50791,-111.731 h -25.80312 l -51.60637,89.38479 z"
             id="path6521" /><path
             style="fill:#b143ff;fill-opacity:1;stroke:none;stroke-width:2;stroke-linejoin:bevel;stroke-dasharray:none;stroke-opacity:1"
             d="m 1112.3299,734.92514 38.7048,-67.03861 -12.9016,-22.34621 -38.7048,67.03862 z"
             id="path6523" /><path
             style="fill:#5700ff;fill-opacity:0.996078;stroke:none;stroke-width:2;stroke-linejoin:bevel;stroke-dasharray:none;stroke-opacity:1"
             d="m 1009.1173,779.6175 -64.50791,-111.731 12.90159,-22.34621 64.50792,111.731 z"
             id="path6525" /><path
             style="fill:#5700ff;fill-opacity:0.996078;stroke:none;stroke-width:2;stroke-linejoin:bevel;stroke-dasharray:none;stroke-opacity:1"
             d="m 1009.1173,600.84791 103.2127,178.76962 -25.8032,2e-5 -90.31109,-156.42343 z"
             id="path6527" /><path
             style="fill:#5700ff;fill-opacity:0.996078;stroke:none;stroke-width:2;stroke-linejoin:bevel;stroke-dasharray:none;stroke-opacity:1"
             d="m 1086.5267,556.15553 64.508,111.731 12.9016,-22.34621 -51.6064,-89.38479 z"
             id="path6529" /><path
             style="fill:#3e00ff;fill-opacity:1;stroke:none;stroke-width:2;stroke-linejoin:bevel;stroke-dasharray:none;stroke-opacity:1"
             d="m 970.41256,667.8865 38.70474,-67.03859 -12.90154,-22.3462 -38.70478,67.03858 z"
             id="path6531" /><path
             style="fill:#3e00ff;fill-opacity:1;stroke:none;stroke-width:2;stroke-linejoin:bevel;stroke-dasharray:none;stroke-opacity:1"
             d="m 1112.33,779.61755 64.5079,-111.73102 -12.9016,-22.34621 -64.5079,111.73103 z"
             id="path6533" /></g></g></g></g></svg>
